PathFileType	4	(X/Y/Z)	/Users/itak/Documents/Research/Walk-IL/dataset/trc/00158_00008.trc
DataRate	CameraRate	NumFrames	NumMarkers	Units	OrigDataRate	OrigDataStartFrame	OrigNumFrames
100.000000	100.000000	4	53	mm	100.000000	271	543
Frame#	Time	RPSI			LPSI			L3			STRN			T10			C7			CLAV			RBAK			LBAK			LSHO			LUPA			LAEL			LAOL			LWTS			LWPS			LFRA			LIFD			LHPS			LHTS			RSHO			RUPA			RAEL			RAOL			RWTS			RWPS			RFRA			RIFD			RHTS			RHPS			RBHD			LFHD			RFHD			LBHD			LHIP			RHIP			RASI			LASI			LKNE			LTHI			LANK			LTIP			LTOE			LMT1			LMT5			LHEE			RKNE			RTHI			RANK			RTIP			RTOE			RMT1			RMT5			RHEE			
		X1	Y1	Z1	X2	Y2	Z2	X3	Y3	Z3	X4	Y4	Z4	X5	Y5	Z5	X6	Y6	Z6	X7	Y7	Z7	X8	Y8	Z8	X9	Y9	Z9	X10	Y10	Z10	X11	Y11	Z11	X12	Y12	Z12	X13	Y13	Z13	X14	Y14	Z14	X15	Y15	Z15	X16	Y16	Z16	X17	Y17	Z17	X18	Y18	Z18	X19	Y19	Z19	X20	Y20	Z20	X21	Y21	Z21	X22	Y22	Z22	X23	Y23	Z23	X24	Y24	Z24	X25	Y25	Z25	X26	Y26	Z26	X27	Y27	Z27	X28	Y28	Z28	X29	Y29	Z29	X30	Y30	Z30	X31	Y31	Z31	X32	Y32	Z32	X33	Y33	Z33	X34	Y34	Z34	X35	Y35	Z35	X36	Y36	Z36	X37	Y37	Z37	X38	Y38	Z38	X39	Y39	Z39	X40	Y40	Z40	X41	Y41	Z41	X42	Y42	Z42	X43	Y43	Z43	X44	Y44	Z44	X45	Y45	Z45	X46	Y46	Z46	X47	Y47	Z47	X48	Y48	Z48	X49	Y49	Z49	X50	Y50	Z50	X51	Y51	Z51	X52	Y52	Z52	X53	Y53	Z53	

272	2.71	-738.4463500976562	1025.41162109375	-28.23245239257812	-730.0275268554688	1031.113037109375	-151.501953125	-733.552734375	1067.598754882812	-89.04267120361328	-466.3045654296875	1264.8115234375	-66.98186492919922	-760.8218383789062	1229.775512695312	-100.6096496582031	-680.74560546875	1495.769287109375	-101.9272232055664	-488.4523315429688	1380.09619140625	-75.95169067382812	-768.4878540039062	1321.480224609375	-4.229158401489258	-676.9920654296875	1473.041137695312	-203.5422058105469	-592.3521728515625	1454.845703125	-272.8887023925781	-622.1909790039062	1323.048583984375	-347.5516357421875	-606.9810180664062	1108.468994140625	-370.4044494628906	-651.1917114257812	1087.876586914062	-296.6341857910156	-483.7359924316406	882.6590576171875	-350.0901794433594	-564.50341796875	858.3741455078125	-388.6043090820312	-587.9148559570312	999.316650390625	-388.0226440429688	-453.5235290527344	700.6002807617188	-340.9944458007812	-536.9630737304688	790.88427734375	-390.1556396484375	-467.0755004882812	808.6262817382812	-376.9838562011719	-642.2048950195312	1466.492431640625	85.56293487548828	-675.209716796875	1399.393310546875	148.9022521972656	-720.8389892578125	1112.75927734375	195.5535278320312	-704.2719116210938	1104.968994140625	97.29781341552734	-568.5497436523438	895.8905029296875	211.574462890625	-650.7548217773438	869.768798828125	230.0372772216797	-698.3729858398438	1039.825073242188	217.0613555908203	-530.5315551757812	712.1718139648438	189.3815460205078	-537.6768798828125	804.5567626953125	227.6699066162109	-615.770263671875	789.7275390625	234.9762268066406	-607.3724975585938	1655.13623046875	-8.429851531982422	-441.4147338867188	1686.267944335938	-145.1620483398438	-436.1169738769531	1681.261352539062	-15.76005077362061	-619.876220703125	1668.439086914062	-146.4885864257812	-626.2561645507812	969.0040893554688	-265.6368408203125	-589.2957153320312	987.886474609375	101.9075927734375	-507.8533325195312	1013.999206542969	48.44619750976562	-501.7113952636719	1003.5537109375	-211.6937408447266	-694.287109375	481.3118896484375	-232.4376373291016	-657.0538330078125	622.7742309570312	-254.3970947265625	-1005.401794433594	110.2364883422852	-218.2302093505859	-841.9888305664062	296.6395263671875	-237.4845123291016	-818.2698974609375	38.9539909362793	-191.3309478759766	-856.2168579101562	44.20199584960938	-143.912841796875	-918.2504272460938	47.0887451171875	-253.4866485595703	-1045.546875	146.1623077392578	-149.9623565673828	-397.7814025878906	525.0287475585938	70.40771484375	-472.6041259765625	783.9815673828125	111.1072845458984	-381.1744079589844	35.4704704284668	62.62215423583984	-356.8408813476562	408.0838317871094	54.42935180664062	-162.9439697265625	59.6839714050293	46.94225692749023	-211.2189483642578	50.73851776123047	-3.612750291824341	-273.1404113769531	35.27895355224609	103.3810653686523	-427.4919738769531	39.48660659790039	-9.832378387451172	
273	2.72	-726.298095703125	1027.8818359375	-26.04548645019531	-717.5402221679688	1033.218139648438	-149.3666381835938	-721.3867797851562	1069.799194335938	-86.88367462158203	-454.8536682128906	1268.040893554688	-64.26351165771484	-749.1483764648438	1231.633666992188	-98.42774200439453	-670.2071533203125	1497.912353515625	-99.67845916748047	-477.5476989746094	1383.201538085938	-73.40724945068359	-757.2326049804688	1323.38916015625	-2.0025954246521	-666.2527465820312	1475.228515625	-201.1939849853516	-581.5616455078125	1457.41162109375	-270.5583190917969	-611.8561401367188	1325.459594726562	-344.9012145996094	-599.5369873046875	1110.729125976562	-365.5457153320312	-642.8616333007812	1091.34912109375	-290.8573913574219	-483.937255859375	880.6309204101562	-347.4489440917969	-566.1912841796875	859.7005615234375	-384.3561706542969	-584.2332763671875	1001.316528320312	-383.3025207519531	-461.6128845214844	697.0686645507812	-338.4093322753906	-541.7123413085938	791.12255859375	-386.293701171875	-470.88134765625	805.622802734375	-374.3251647949219	-631.8386840820312	1469.134521484375	87.79314422607422	-664.7254638671875	1402.081420898438	151.1676940917969	-709.708251953125	1115.492553710938	197.6103668212891	-692.9951171875	1107.757934570312	99.38762664794922	-559.1478881835938	897.349853515625	213.7659149169922	-641.571533203125	872.172607421875	232.4841003417969	-687.6690673828125	1042.57275390625	219.1912994384766	-523.560302734375	713.0411376953125	191.7734680175781	-529.27001953125	805.6085205078125	229.9246520996094	-607.492431640625	791.7760009765625	237.5130004882812	-596.6492919921875	1657.594604492188	-5.856882095336914	-430.5645751953125	1688.783569335938	-142.4146423339844	-425.4144592285156	1683.535888671875	-13.02836799621582	-609.0679321289062	1671.174194335938	-143.9248657226562	-613.80810546875	970.7915649414062	-263.398681640625	-577.2814331054688	990.8328857421875	104.4522094726562	-495.928466796875	1017.174682617188	51.09513092041016	-489.1444702148438	1006.089721679688	-209.0995941162109	-677.9286499023438	481.5665283203125	-233.2621307373047	-641.8153686523438	623.6893920898438	-253.6842956542969	-999.0389404296875	118.2111053466797	-217.1973114013672	-830.4345703125	300.1421813964844	-237.7734222412109	-817.813720703125	38.55928039550781	-191.4610290527344	-853.6383056640625	44.95130157470703	-143.7960968017578	-915.7880249023438	50.35018539428711	-252.9482116699219	-1036.547729492188	156.3677062988281	-148.7351837158203	-389.6092224121094	525.5636596679688	71.19767761230469	-461.1499633789062	785.621337890625	112.8761520385742	-380.6991882324219	35.87929916381836	62.65098190307617	-350.3013610839844	407.9222412109375	54.69442749023438	-162.1307830810547	57.52602005004883	45.97877502441406	-210.7819976806641	49.36399078369141	-4.417858123779297	-272.7505187988281	35.35224914550781	103.2474975585938	-427.2468872070312	39.73588180541992	-9.508710861206055	
274	2.73	-714.1683959960938	1030.361694335938	-23.69922637939453	-705.2607421875	1035.31103515625	-147.0836029052734	-709.3278198242188	1072.005493164062	-84.58208465576172	-443.4599304199219	1271.291259765625	-61.61648941040039	-737.5526123046875	1233.494506835938	-96.16898345947266	-659.7438354492188	1500.051879882812	-97.44713592529297	-466.7162170410156	1386.313598632812	-70.92525482177734	-746.0164184570312	1325.293579101562	0.2433126866817474	-655.6236572265625	1477.419311523438	-198.85888671875	-570.8855590820312	1460.012451171875	-268.2628784179688	-601.6456298828125	1327.918334960938	-342.298095703125	-591.9986572265625	1113.10888671875	-360.7954711914062	-634.4298706054688	1094.86669921875	-285.23828125	-484.1236267089844	879.0514526367188	-344.7398071289062	-567.7030639648438	861.5230712890625	-380.1104431152344	-580.4150390625	1003.613464355469	-378.6416625976562	-469.892578125	694.2704467773438	-335.4472351074219	-546.3463134765625	791.9832153320312	-382.3456115722656	-474.7335510253906	803.1473999023438	-371.4173278808594	-621.5240478515625	1471.783447265625	89.98199462890625	-654.3062744140625	1404.810913085938	153.3986511230469	-698.7113037109375	1118.28857421875	199.8266906738281	-681.9119262695312	1110.583374023438	101.6180572509766	-549.5884399414062	899.0736083984375	215.9284820556641	-632.1536254882812	874.7125854492188	235.0472869873047	-677	1045.380615234375	221.4717102050781	-516.1705322265625	714.2838745117188	194.0119018554688	-520.5253295898438	807.0050659179688	232.0828857421875	-598.8135375976562	794.0043334960938	240.0882568359375	-586.0455322265625	1660.09375	-3.357962369918823	-419.8545227050781	1691.31640625	-139.770263671875	-414.8309631347656	1685.861938476562	-10.39505577087402	-598.38818359375	1673.907104492188	-141.4415740966797	-601.6893920898438	972.5823364257812	-261.1080322265625	-565.3071899414062	993.6449584960938	107.0475769042969	-484.02001953125	1020.179138183594	53.75263595581055	-476.8125	1008.671142578125	-206.4853973388672	-660.8523559570312	481.6236572265625	-234.14208984375	-626.15234375	624.4605102539062	-253.0387115478516	-991.9476318359375	126.7491073608398	-215.7471160888672	-818.13916015625	303.7033996582031	-237.9341888427734	-816.8428955078125	37.97466659545898	-191.6620941162109	-850.5189208984375	46.11238479614258	-143.7486267089844	-912.9782104492188	54.36028289794922	-252.2042388916016	-1026.53857421875	166.8742828369141	-147.0163269042969	-381.9786682128906	525.8955078125	71.97116088867188	-449.9403686523438	786.990234375	114.5755996704102	-380.2808837890625	36.2237434387207	62.68038940429688	-344.315185546875	407.6604309082031	54.96907424926758	-161.4579772949219	55.71170425415039	45.06322860717773	-210.4405364990234	48.27599334716797	-5.203995227813721	-272.4534301757812	35.48272705078125	103.1102600097656	-427.0798950195312	39.90792846679688	-9.250563621520996	
275	2.74	-702.1154174804688	1032.827514648438	-21.21638298034668	-693.2415161132812	1037.359130859375	-144.6682281494141	-697.4215087890625	1074.198364257812	-82.15821075439453	-432.1451721191406	1274.476196289062	-59.07417297363281	-726.0707397460938	1235.344360351562	-93.84010314941406	-649.337158203125	1502.165649414062	-95.23509979248047	-455.9556274414062	1389.35009765625	-68.52987670898438	-734.85009765625	1327.177001953125	2.511521100997925	-645.0913696289062	1479.585327148438	-196.5420684814453	-560.3245849609375	1462.593505859375	-266.0196228027344	-591.58642578125	1330.362060546875	-339.7416381835938	-584.4082641601562	1115.53955078125	-356.2120971679688	-625.9500732421875	1098.35107421875	-279.8384094238281	-484.1991271972656	877.8985595703125	-341.9586486816406	-568.920166015625	863.7642211914062	-375.9159240722656	-576.4260864257812	1006.132995605469	-374.08935546875	-478.1682739257812	692.2122802734375	-332.0839538574219	-550.6976928710938	793.398681640625	-378.343994140625	-478.483154296875	801.1876220703125	-368.2431945800781	-611.224365234375	1474.382934570312	92.13066864013672	-643.9196166992188	1407.522338867188	155.5967102050781	-687.8634643554688	1121.091186523438	202.2014617919922	-671.0360717773438	1113.382202148438	103.9904174804688	-539.865966796875	901.0157470703125	218.0783538818359	-622.4921264648438	877.326171875	237.736328125	-666.37646484375	1048.1904296875	223.9062652587891	-508.2790222167969	715.8512573242188	196.1319122314453	-511.4172058105469	808.7045288085938	234.1603698730469	-589.7179565429688	796.3549194335938	242.7128143310547	-575.5753784179688	1662.583129882812	-0.9361671805381775	-409.31494140625	1693.850219726562	-137.2434387207031	-404.3840026855469	1688.234252929688	-7.874370098114014	-587.860595703125	1676.569702148438	-139.0398712158203	-589.9544067382812	974.3086547851562	-258.7665100097656	-553.4244995117188	996.3079223632812	109.6514205932617	-472.1632385253906	1022.966796875	56.37998199462891	-464.819091796875	1011.206115722656	-203.8594512939453	-643.1318969726562	481.4867553710938	-235.0043640136719	-610.1649780273438	625.0633544921875	-252.4337005615234	-984.12060546875	135.8947143554688	-213.9339141845703	-805.1109008789062	307.3378295898438	-237.9335021972656	-815.1298217773438	37.18833160400391	-191.947265625	-846.7225341796875	47.83413314819336	-143.8074798583984	-909.6981811523438	59.25424957275391	-251.2449035644531	-1015.585327148438	177.6455535888672	-144.8650817871094	-374.865966796875	526.0682373046875	72.76773071289062	-439.0506896972656	788.1429443359375	116.2438735961914	-379.9296264648438	36.49856948852539	62.70909118652344	-338.8544921875	407.3214111328125	55.30688858032227	-160.8970336914062	54.17356491088867	44.22876739501953	-210.1658782958984	47.41328430175781	-5.939634323120117	-272.2401123046875	35.61626434326172	102.9844360351562	-426.9705810546875	40.03805541992188	-9.077524185180664	
